<?xml version="1.0" encoding="UTF-8" standalone="no"?>
<svg
   id="svg2"
   viewBox="0 0 500 500"
   width="500px"
   height="500px"
   version="1.1"
   sodipodi:docname="icon_dark.svg"
   inkscape:version="1.4.2 (f4327f4, 2025-05-13)"
   xmlns:inkscape="http://www.inkscape.org/namespaces/inkscape"
   xmlns:sodipodi="http://sodipodi.sourceforge.net/DTD/sodipodi-0.dtd"
   xmlns="http://www.w3.org/2000/svg"
   xmlns:svg="http://www.w3.org/2000/svg"
   xmlns:bx="https://boxy-svg.com">
  <sodipodi:namedview
     id="namedview2"
     pagecolor="#ffffff"
     bordercolor="#000000"
     borderopacity="0.25"
     inkscape:showpageshadow="2"
     inkscape:pageopacity="0.0"
     inkscape:pagecheckerboard="0"
     inkscape:deskcolor="#d1d1d1"
     inkscape:zoom="0.84994235"
     inkscape:cx="-118.83159"
     inkscape:cy="285.90174"
     inkscape:window-width="2400"
     inkscape:window-height="1494"
     inkscape:window-x="-11"
     inkscape:window-y="-11"
     inkscape:window-maximized="1"
     inkscape:current-layer="svg2" />
  <desc
     id="desc1">Source: openclipart.org/detail/209545</desc>
  <defs
     id="defs1">
    <bx:export>
      <bx:file
         format="png"
         path="icon.png" />
      <bx:file
         format="svg"
         path="icon.svg" />
    </bx:export>
  </defs>
  <g
     style="transform-origin: 262.5px 250px;"
     transform="matrix(0, 1, -1, 0, -12.5, 12.5)"
     id="g2">
    <path
       style="display:inline;fill:#ffffff;fill-opacity:1"
       d="m 125,0 h 375 v 375 c 0,69.036 -59.962,125 -133.928,125 H 125 Z m 56.25,60 v 130 c 0,5.523 4.797,10 10.715,10 h 241.07 c 5.918,0 10.715,-4.477 10.715,-10 V 60 c 0,-5.523 -4.797,-10 -10.715,-10 h -241.07 c -5.918,0 -10.715,4.477 -10.715,10 z m 72.322,245 v -30 h -32.144 v 30 h -32.143 v 30 h 32.143 v 30 h 32.144 v -30 h 32.143 v -30 z m 117.856,20 C 359.593,325 350,333.954 350,345 c 0,11.046 9.593,20 21.428,20 11.835,0 21.429,-8.954 21.429,-20 0,-11.046 -9.594,-20 -21.429,-20 z m 42.857,-50 c -11.835,0 -21.428,8.954 -21.428,20 0,11.046 9.593,20 21.428,20 11.835,0 21.43,-8.954 21.43,-20 0,-11.046 -9.595,-20 -21.43,-20 z"
       id="path1" />
    <path
       style="display:inline;fill:none;stroke:#ffffff;stroke-width:50px;stroke-opacity:1"
       d="m 65,90 h 85 V 410 H 65 A 40,40 0 0 1 25,370 V 130 A 40,40 0 0 1 65,90 Z"
       bx:shape="rect 25 90 125 320 40 0 0 40 1@dffa75fe"
       id="path2" />
  </g>
  <path
     style="display:none;fill:#000000;fill-opacity:1;stroke-width:1.17655"
     d="m -410.02781,509.46435 c -13.17002,-2.85705 -21.98863,-6.04564 -32.84806,-11.87707 -33.75535,-18.12637 -56.69828,-49.6363 -66.32361,-91.08912 -2.39977,-10.33497 -2.46887,-13.68615 -2.88091,-139.71536 l -0.42216,-129.12641 h 33.00084 33.00084 v -34.46104 c 0,-38.553545 0.54211,-42.456356 7.82148,-56.309014 4.87018,-9.267974 16.5109,-20.94318 25.9514,-26.028277 3.32996,-1.793672 10.14948,-4.308549 15.15448,-5.588614 8.78968,-2.248021 13.37677,-2.326694 134.50856,-2.306962 137.94061,0.02247 134.42138,-0.147642 149.52784,7.227895 15.845037,7.736137 30.350551,26.625745 34.005869,44.283666 0.760146,3.672132 1.29064,19.993413 1.29064,39.708576 v 33.47377 h 32.355136 32.355136 v 187.07152 187.07151 l -193.248401,-0.0828 c -183.22001,-0.0785 -193.76737,-0.19536 -203.24908,-2.25228 z m 345.228662,-56.60139 3.061679,-3.6386 -0.309857,-125.16119 -0.309844,-125.16119 -2.679323,-2.67972 -2.679323,-2.67972 -67.895784,-0.32247 c -50.65157,-0.24056 -68.75884,0.035 -71.29393,1.08511 -6.87633,2.84826 -6.63836,-1.82702 -6.63836,130.42273 0,129.04355 -0.0769,127.21193 5.47837,130.44116 1.47389,0.85674 24.29233,1.27239 71.18695,1.2967 l 69.017744,0.0358 z m -232.187672,-7.2725 c 14.00482,-9.43784 13.13737,-31.24539 -1.5252,-38.34342 -8.7133,-4.21804 -17.07731,-2.75607 -23.4938,4.10655 -4.13892,4.4267 -5.66346,8.69539 -5.66346,15.85767 0,7.46647 3.38529,14.18926 9.10072,18.07301 5.95309,4.04523 15.82553,4.1853 21.58174,0.30619 z m -52.65006,-41.28543 c 11.67101,-4.87645 16.18191,-22.19974 8.71775,-33.47886 -3.66783,-5.54247 -9.41037,-8.44865 -16.69429,-8.44865 -8.75784,0 -15.19224,4.51634 -18.82655,13.21446 -7.37206,17.64383 9.65081,35.87974 26.80309,28.71305 z m 32.55655,-121.34466 v -15.88343 h 15.29516 15.29515 v -17.05998 -17.05998 h -15.29515 -15.29516 v -15.88343 -15.88343 h -15.29515 -15.29516 v 15.88343 15.88343 h -15.29515 -15.29516 v 17.05998 17.05998 h 15.29516 15.29515 v 15.88343 15.88343 h 15.29516 15.29515 z m 190.53476,-176.18842 c -0.0739,-34.384901 -0.58711,-37.500533 -6.87275,-41.7268 l -3.99779,-2.68798 h -125.55822 -125.55823 l -3.24262,2.550644 c -6.04547,4.755368 -6.48712,7.582924 -6.48712,41.532206 v 31.21637 h 135.89156 135.89157 z"
     id="path3" />
</svg>
